<svg width="111" height="110" viewBox="0 0 111 110" fill="none" xmlns="http://www.w3.org/2000/svg">
<path fill-rule="evenodd" clip-rule="evenodd" d="M83.4156 11.682C80.8839 10.2643 78.1886 10.1215 75.3393 10.4776C72.6331 10.8159 69.3406 11.6716 65.3838 12.7001L56.1335 15.104C52.1784 16.1318 48.8853 16.9875 46.3656 18.0076C43.7163 19.0802 41.4257 20.5213 39.9399 23.0174C38.4447 25.5292 38.2962 28.2144 38.6689 31.0191C39.0202 33.6635 39.9069 36.8725 40.9632 40.6956L43.4499 49.6967C44.5065 53.5219 45.3928 56.7304 46.451 59.189C47.5746 61.7995 49.0754 64.0219 51.622 65.4479C54.1536 66.8655 56.849 67.0083 59.6982 66.6522C62.4044 66.314 65.6969 65.4582 69.6536 64.4298L78.9042 62.0258C82.8592 60.9981 86.1523 60.1424 88.672 59.1222C91.3212 58.0496 93.6118 56.6085 95.0976 54.1125C96.5929 51.6007 96.7413 48.9155 96.3687 46.1108C96.0174 43.4664 95.1307 40.2574 94.0743 36.4342L91.5876 27.433C90.531 23.608 89.6447 20.3995 88.5865 17.9408C87.463 15.3303 85.9621 13.108 83.4156 11.682ZM66.8886 19.4124C71.1279 18.3107 73.9841 17.5755 76.1919 17.2996C78.3078 17.0351 79.3204 17.2683 80.0566 17.6805C80.7779 18.0844 81.4667 18.7886 82.2716 20.6588C83.1205 22.6312 83.8871 25.3773 85.025 29.4961L87.3828 38.0305C88.5209 42.1503 89.2723 44.8989 89.5536 47.0162C89.8207 49.0271 89.5816 49.9382 89.1901 50.5959C88.7892 51.2693 88.0624 51.9519 86.0919 52.7497C84.0398 53.5806 81.1885 54.3287 76.9483 55.4307L68.1489 57.7175C63.9097 58.8192 61.0534 59.5544 58.8456 59.8303C56.7298 60.0947 55.7172 59.8616 54.981 59.4493C54.2597 59.0454 53.5708 58.3412 52.766 56.4711C51.917 54.4987 51.1504 51.7526 50.0126 47.6338L47.6548 39.0993C46.5166 34.9795 45.7653 32.2309 45.484 30.1136C45.2168 28.1028 45.456 27.1916 45.8474 26.534C46.2483 25.8605 46.9751 25.1779 48.9456 24.3801C50.9977 23.5493 53.849 22.8011 58.0892 21.6992L66.8886 19.4124Z" fill="#1C274C"/>
<path fill-rule="evenodd" clip-rule="evenodd" d="M15.169 21.655C13.3397 21.1474 11.4452 22.219 10.9376 24.0483C10.4301 25.8777 11.5016 27.7722 13.331 28.2797L21.1396 30.4462C23.0903 30.9874 24.5429 32.4609 25.0392 34.2572L33.9827 66.6298C33.6391 66.6974 33.2957 66.7757 32.9528 66.8648C23.8913 69.2197 18.3541 78.3351 20.8416 87.339C23.3172 96.2997 32.7298 101.468 41.7554 99.1221C49.6539 97.0695 54.8748 89.8802 54.4373 82.1055L93.0313 72.0757C94.8688 71.5981 95.9712 69.7215 95.4937 67.8841C95.0162 66.0466 93.1395 64.9442 91.3021 65.4217L52.6273 75.4725C50.2973 70.9472 46.0183 67.7999 41.139 66.716L31.6659 32.4264C30.5058 28.227 27.18 24.9874 22.9776 23.8215L15.169 21.655ZM34.682 73.5188C40.2358 72.0754 45.8088 75.2989 47.2398 80.4786C48.6588 85.615 45.544 91.0342 40.0262 92.4682C34.4724 93.9115 28.8994 90.688 27.4684 85.5083C26.0494 80.3719 29.1642 74.9527 34.682 73.5188Z" fill="#1C274C"/>
</svg>
