<svg width="111" height="110" viewBox="0 0 111 110" fill="none" xmlns="http://www.w3.org/2000/svg">
<path fill-rule="evenodd" clip-rule="evenodd" d="M13.8999 46.7829C13.3778 49.4412 13.1042 52.1887 13.1042 55C13.1042 56.0378 13.1414 57.0669 13.2148 58.0861C13.3111 58.1644 13.4125 58.2462 13.5187 58.3311C14.5276 59.1381 15.9501 60.2109 17.6044 61.2781C21.0764 63.5177 24.9373 65.3125 28 65.3125C29.9965 65.3125 32.4174 64.5393 34.9573 63.2604C36.5007 62.4833 37.9757 61.5772 39.2781 60.6941C38.6526 58.9121 38.3125 56.9958 38.3125 55C38.3125 45.5076 46.0076 37.8125 55.5 37.8125C64.9924 37.8125 72.6875 45.5076 72.6875 55C72.6875 58.5339 71.621 61.8186 69.7923 64.55C70.8132 65.0359 71.8683 65.3125 72.9411 65.3125C75.063 65.3125 76.0655 64.3078 78.0585 61.9484C78.1065 61.8916 78.1552 61.8339 78.2045 61.7753C79.8609 59.8104 82.2798 56.9409 86.5741 56.2835C85.9858 56.1038 85.4384 55.7639 85.002 55.2684C83.7473 53.8437 83.8851 51.6715 85.3098 50.4168L93.001 43.6433C93.8918 42.8588 95.0749 42.6187 96.1432 42.8972C95.0837 39.3338 93.5683 35.9667 91.6647 32.8633L90.014 34.514C88.6716 35.8565 86.4951 35.8565 85.1526 34.514C83.8102 33.1716 83.8102 30.9951 85.1526 29.6527L87.5541 27.2512C79.7805 18.2793 68.303 12.6042 55.5 12.6042C47.3871 12.6042 39.8065 14.8829 33.3633 18.8353L35.014 20.486C36.3564 21.8284 36.3564 24.0049 35.014 25.3474C33.6716 26.6898 31.4951 26.6898 30.1526 25.3474L27.7512 22.9459C23.1437 26.938 19.4057 31.9069 16.8592 37.5306C18.7411 37.4429 20.3458 38.8883 20.4508 40.7732L20.8113 47.2449C20.9169 49.1405 19.4659 50.7627 17.5703 50.8683C15.6748 50.9739 14.0525 49.5229 13.9469 47.6273L13.8999 46.7829ZM97.4573 48.8797L89.8536 55.5762C89.5735 55.8229 89.2645 56.0158 88.9392 56.1556C92.4033 56.2877 95.3443 57.7461 97.6608 59.4907C97.8162 58.015 97.8958 56.5168 97.8958 55C97.8958 52.9216 97.7463 50.8781 97.4573 48.8797ZM96.0656 67.3609C94.0428 65.0762 91.3387 63.0209 88.4278 63.0209C86.3058 63.0209 85.3034 64.0256 83.3104 66.3849C83.2624 66.4418 83.2137 66.4995 83.1644 66.5581C81.2833 68.7896 78.4188 72.1875 72.9411 72.1875C69.6996 72.1875 66.9123 71.0099 64.6823 69.5318C62.026 71.2138 58.8767 72.1875 55.5 72.1875C50.4781 72.1875 45.9592 70.0338 42.8167 66.5995C41.3934 67.5499 39.7739 68.5326 38.0492 69.401C35.1103 70.8808 31.5584 72.1875 28 72.1875C23.3591 72.1875 18.6201 69.9521 15.0713 67.8021C20.4993 84.9595 36.5473 97.3959 55.5 97.3959C74.6147 97.3959 90.7749 84.7459 96.0656 67.3609ZM6.22916 55C6.22916 27.7885 28.2885 5.72919 55.5 5.72919C82.7115 5.72919 104.771 27.7885 104.771 55C104.771 82.2116 82.7115 104.271 55.5 104.271C28.2885 104.271 6.22916 82.2116 6.22916 55ZM48.486 15.9027C49.8284 14.5602 52.0049 14.5602 53.3473 15.9027L57.9307 20.486C59.2731 21.8284 59.2731 24.0049 57.9307 25.3474C56.5882 26.6898 54.4117 26.6898 53.0693 25.3474L48.486 20.764C47.1436 19.4216 47.1436 17.2451 48.486 15.9027ZM75.8958 20.1667C77.4146 21.3058 77.7224 23.4604 76.5833 24.9792L69.7083 34.1459C68.5692 35.6646 66.4146 35.9724 64.8958 34.8334C63.377 33.6943 63.0692 31.5396 64.2083 30.0209L71.0833 20.8542C72.2224 19.3354 74.377 19.0276 75.8958 20.1667ZM51.9454 31.1937C52.4367 33.0275 51.3485 34.9124 49.5147 35.4037L43.2537 37.0813C41.4199 37.5727 39.535 36.4845 39.0437 34.6507C38.5523 32.8169 39.6406 30.932 41.4743 30.4406L47.7353 28.763C49.5691 28.2716 51.454 29.3599 51.9454 31.1937ZM27.5273 32.8792C29.2556 32.0936 31.2935 32.8578 32.0791 34.5861L34.7614 40.4869C35.547 42.2152 34.7828 44.2531 33.0545 45.0387C31.3262 45.8243 29.2883 45.0601 28.5027 43.3318L25.8204 37.4311C25.0348 35.7028 25.799 33.6648 27.5273 32.8792ZM76.6505 37.7086C78.5468 37.6195 80.1564 39.0846 80.2455 40.981L80.5498 47.4556C80.639 49.352 79.1739 50.9616 77.2775 51.0507C75.3811 51.1398 73.7715 49.6748 73.6824 47.7784L73.3781 41.3037C73.289 39.4073 74.7541 37.7977 76.6505 37.7086ZM55.5 44.6875C49.8046 44.6875 45.1875 49.3046 45.1875 55C45.1875 60.6955 49.8046 65.3125 55.5 65.3125C61.1954 65.3125 65.8125 60.6955 65.8125 55C65.8125 49.3046 61.1954 44.6875 55.5 44.6875ZM32.3224 49.9352C33.8545 51.0564 34.1874 53.2073 33.0662 54.7393L29.2381 59.9699C28.1168 61.5019 25.9659 61.8349 24.4339 60.7136C22.9019 59.5924 22.5689 57.4415 23.6902 55.9095L27.5183 50.6789C28.6396 49.1469 30.7904 48.8139 32.3224 49.9352Z" fill="#1C274C"/>
</svg>
