<svg width="110" height="110" viewBox="0 0 110 110" fill="none" xmlns="http://www.w3.org/2000/svg">
<path fill-rule="evenodd" clip-rule="evenodd" d="M73.3334 30.9375C70.1692 30.9375 67.6042 33.5026 67.6042 36.6667C67.6042 39.8308 70.1692 42.3959 73.3334 42.3959C76.4975 42.3959 79.0625 39.8308 79.0625 36.6667C79.0625 33.5026 76.4975 30.9375 73.3334 30.9375ZM60.7292 36.6667C60.7292 29.7056 66.3723 24.0625 73.3334 24.0625C80.2944 24.0625 85.9375 29.7056 85.9375 36.6667C85.9375 43.6278 80.2944 49.2709 73.3334 49.2709C66.3723 49.2709 60.7292 43.6278 60.7292 36.6667Z" fill="#1C274C"/>
<path fill-rule="evenodd" clip-rule="evenodd" d="M54.737 5.72919H55.263C65.8431 5.72913 74.1346 5.72908 80.6039 6.59886C87.2256 7.48912 92.4507 9.34693 96.5519 13.4481C100.653 17.5494 102.511 22.7745 103.401 29.3962C104.271 35.8655 104.271 44.1569 104.271 54.7371V55.263C104.271 65.8431 104.271 74.1346 103.401 80.6039C102.511 87.2256 100.653 92.4507 96.5519 96.5519C92.4507 100.653 87.2256 102.511 80.6039 103.401C74.1346 104.271 65.8431 104.271 55.263 104.271H54.7371C44.1569 104.271 35.8655 104.271 29.3962 103.401C22.7745 102.511 17.5494 100.653 13.4481 96.5519C9.34693 92.4507 7.48912 87.2256 6.59886 80.6039C5.72908 74.1346 5.72913 65.8431 5.72919 55.263V54.737C5.72913 44.1569 5.72908 35.8655 6.59886 29.3962C7.48912 22.7745 9.34693 17.5494 13.4481 13.4481C17.5494 9.34693 22.7745 7.48912 29.3962 6.59886C35.8655 5.72908 44.1569 5.72913 54.737 5.72919ZM18.3095 91.6905C15.6986 89.0796 14.2003 85.5471 13.4126 79.6878C12.7091 74.4557 12.6178 67.7808 12.6059 58.8506L19.4584 52.8548C22.2731 50.3919 26.5153 50.5332 29.1599 53.1778L48.8211 72.8391C53.1521 77.1701 59.9697 77.7606 64.9809 74.2388L66.3476 73.2783C70.281 70.514 75.6025 70.8343 79.1759 74.0503L93.9504 87.3474C94.1112 87.4921 94.2819 87.6188 94.4601 87.7277C93.7192 89.2902 92.8065 90.5745 91.6905 91.6905C89.0796 94.3015 85.5471 95.7997 79.6878 96.5875C73.7296 97.3885 65.9002 97.3958 55 97.3958C44.0998 97.3958 36.2705 97.3885 30.3122 96.5875C24.4529 95.7997 20.9204 94.3015 18.3095 91.6905ZM30.3122 13.4126C24.4529 14.2003 20.9204 15.6986 18.3095 18.3095C15.6986 20.9204 14.2003 24.4529 13.4126 30.3122C12.7474 35.2599 12.6295 41.4979 12.6087 49.713L14.9312 47.6808C20.4698 42.8345 28.8173 43.1125 34.0213 48.3165L53.6825 67.9777C55.6511 69.9463 58.75 70.2148 61.0278 68.6139L62.3946 67.6534C68.9501 63.0463 77.8194 63.5801 83.7751 68.9402L96.4891 80.3828C96.523 80.1548 96.5558 79.9232 96.5875 79.6878C97.3885 73.7296 97.3958 65.9002 97.3958 55C97.3958 44.0998 97.3885 36.2705 96.5875 30.3122C95.7997 24.4529 94.3015 20.9204 91.6905 18.3095C89.0796 15.6986 85.5471 14.2003 79.6878 13.4126C73.7296 12.6115 65.9002 12.6042 55 12.6042C44.0998 12.6042 36.2705 12.6115 30.3122 13.4126Z" fill="#1C274C"/>
</svg>
