<svg width="111" height="110" viewBox="0 0 111 110" fill="none" xmlns="http://www.w3.org/2000/svg">
<path fill-rule="evenodd" clip-rule="evenodd" d="M55.5 5.72919C43.4763 5.72919 33.7292 15.4763 33.7292 27.5C33.7292 39.5237 43.4763 49.2709 55.5 49.2709C67.5237 49.2709 77.2709 39.5237 77.2709 27.5C77.2709 15.4763 67.5237 5.72919 55.5 5.72919ZM40.6042 27.5C40.6042 19.2733 47.2733 12.6042 55.5 12.6042C63.7268 12.6042 70.3959 19.2733 70.3959 27.5C70.3959 35.7268 63.7268 42.3959 55.5 42.3959C47.2733 42.3959 40.6042 35.7268 40.6042 27.5Z" fill="#1C274C"/>
<path d="M83 14.8959C81.1016 14.8959 79.5625 16.4349 79.5625 18.3334C79.5625 20.2318 81.1016 21.7709 83 21.7709C89.3089 21.7709 93.3125 25.9221 93.3125 29.7917C93.3125 33.6613 89.3089 37.8125 83 37.8125C81.1016 37.8125 79.5625 39.3515 79.5625 41.25C79.5625 43.1485 81.1016 44.6875 83 44.6875C91.879 44.6875 100.188 38.5786 100.188 29.7917C100.188 21.0047 91.879 14.8959 83 14.8959Z" fill="#1C274C"/>
<path d="M31.4375 18.3334C31.4375 16.4349 29.8985 14.8959 28 14.8959C19.1211 14.8959 10.8125 21.0047 10.8125 29.7917C10.8125 38.5786 19.1211 44.6875 28 44.6875C29.8985 44.6875 31.4375 43.1485 31.4375 41.25C31.4375 39.3515 29.8985 37.8125 28 37.8125C21.6911 37.8125 17.6875 33.6613 17.6875 29.7917C17.6875 25.9221 21.6911 21.7709 28 21.7709C29.8985 21.7709 31.4375 20.2318 31.4375 18.3334Z" fill="#1C274C"/>
<path fill-rule="evenodd" clip-rule="evenodd" d="M55.5 56.1459C47.3221 56.1459 39.7629 58.3495 34.1478 62.0929C28.5567 65.8203 24.5625 71.3471 24.5625 77.9167C24.5625 84.4862 28.5567 90.0131 34.1478 93.7405C39.7629 97.4839 47.3221 99.6875 55.5 99.6875C63.678 99.6875 71.2371 97.4839 76.8523 93.7405C82.4434 90.0131 86.4375 84.4862 86.4375 77.9167C86.4375 71.3471 82.4434 65.8203 76.8523 62.0929C71.2371 58.3495 63.678 56.1459 55.5 56.1459ZM31.4375 77.9167C31.4375 74.361 33.5994 70.7212 37.9614 67.8132C42.2993 64.9213 48.4901 63.0209 55.5 63.0209C62.51 63.0209 68.7008 64.9213 73.0387 67.8132C77.4007 70.7212 79.5625 74.361 79.5625 77.9167C79.5625 81.4724 77.4007 85.1122 73.0387 88.0201C68.7008 90.9121 62.51 92.8125 55.5 92.8125C48.4901 92.8125 42.2993 90.9121 37.9614 88.0201C33.5994 85.1122 31.4375 81.4724 31.4375 77.9167Z" fill="#1C274C"/>
<path d="M88.809 63.4304C89.2157 61.576 91.0486 60.4023 92.903 60.809C97.3117 61.7758 101.284 63.522 104.234 65.9355C107.181 68.3469 109.354 71.6615 109.354 75.625C109.354 79.5885 107.181 82.9032 104.234 85.3145C101.284 87.728 97.3117 89.4743 92.903 90.4411C91.0486 90.8477 89.2157 89.6741 88.809 87.8197C88.4023 85.9653 89.576 84.1323 91.4304 83.7256C95.0621 82.9292 97.9644 81.5613 99.8799 79.9939C101.798 78.4243 102.479 76.8914 102.479 75.625C102.479 74.3586 101.798 72.8257 99.8799 71.2562C97.9644 69.6888 95.0621 68.3208 91.4304 67.5244C89.576 67.1177 88.4023 65.2848 88.809 63.4304Z" fill="#1C274C"/>
<path d="M18.097 60.809C19.9515 60.4023 21.7844 61.576 22.1911 63.4304C22.5977 65.2848 21.4241 67.1177 19.5697 67.5244C15.938 68.3208 13.0357 69.6888 11.1202 71.2562C9.20209 72.8257 8.52087 74.3586 8.52087 75.625C8.52087 76.8914 9.20209 78.4243 11.1202 79.9939C13.0357 81.5613 15.938 82.9292 19.5697 83.7256C21.4241 84.1323 22.5977 85.9653 22.1911 87.8197C21.7844 89.6741 19.9515 90.8477 18.097 90.4411C13.6884 89.4743 9.71576 87.728 6.76634 85.3145C3.81951 82.9032 1.64587 79.5885 1.64587 75.625C1.64587 71.6615 3.81951 68.3469 6.76634 65.9355C9.71576 63.522 13.6884 61.7758 18.097 60.809Z" fill="#1C274C"/>
</svg>
