<?xml version="1.0" encoding="UTF-8"?> <svg xmlns="http://www.w3.org/2000/svg" width="400" height="400" viewBox="0 0 400 400" fill="none"> <path fill-rule="evenodd" clip-rule="evenodd" d="M282.25 119.994C267.672 125.374 88.0115 194.619 85.3653 195.878C76.5722 200.059 75.5442 205.582 82.8643 209.317C83.571 209.678 95.7316 213.579 109.888 217.987L135.627 226.002L194.072 189.322C226.216 169.148 253.164 152.416 253.955 152.14C255.94 151.445 257.648 151.51 258.445 152.31C259.004 152.87 259.027 153.151 258.583 153.974C258.29 154.519 236.944 173.967 211.148 197.192C185.352 220.417 164.177 239.602 164.091 239.824C164.007 240.046 163.134 251.642 162.152 265.592L160.368 290.955L162.307 290.693C163.374 290.548 165.062 289.996 166.06 289.465C167.058 288.935 173.774 282.832 180.985 275.903C188.195 268.974 194.344 263.209 194.65 263.091C194.955 262.974 206.438 271.134 220.167 281.225C233.896 291.316 246.206 300.072 247.52 300.681C250.969 302.28 254.854 302.438 257.378 301.084C259.631 299.874 261.834 296.868 262.761 293.739C263.119 292.527 270.968 256.143 280.204 212.885C295.579 140.862 296.995 133.889 297 130.151C297.005 126.619 296.859 125.779 295.915 123.92C295.25 122.609 294.116 121.271 293.007 120.489C290.473 118.701 286.277 118.508 282.25 119.994Z" fill="white"></path> <circle cx="200" cy="200" r="187.5" stroke="white" stroke-width="25"></circle> </svg> 