<?xml version="1.0" encoding="UTF-8"?> <svg xmlns="http://www.w3.org/2000/svg" width="400" height="400" viewBox="0 0 400 400" fill="none"> <path fill-rule="evenodd" clip-rule="evenodd" d="M181.376 135.138C177.012 135.454 171.458 136.302 169.236 136.992C165.426 138.175 160.678 142.394 161.556 143.817C161.717 144.079 162.601 144.432 163.52 144.603C167.643 145.369 171.122 147.711 172.681 150.77C175.346 155.999 176.544 172.354 175.11 183.933C174.163 191.586 173.762 193.36 172.358 196.135C168.598 203.562 159.873 197.488 150.392 180.844C146.977 174.849 137.438 155.789 135.318 150.723C132.741 144.568 131.926 143.435 128.997 141.943L126.524 140.684L107.866 140.818C91.0165 140.939 89.0661 141.029 87.7501 141.749C85.664 142.89 84.7729 144.449 85.0489 146.475C85.5354 150.05 96.2759 172.524 105.316 188.883C116.223 208.623 130.644 229.179 141.095 239.881C150.17 249.175 164.159 258.266 175.441 262.203C182.911 264.81 187.06 265.428 198.91 265.699C210.659 265.969 214.034 265.63 216.524 263.93C218.574 262.53 219.208 260.598 219.591 254.592C219.968 248.664 221.125 243.581 222.715 240.866C224.117 238.47 227.165 235.704 228.473 235.639C233.036 235.414 235.591 237.312 245.124 248.009C254.062 258.038 257.366 260.99 262.304 263.356C264.529 264.423 267.261 265.505 268.373 265.761C271.071 266.38 307.485 265.684 309.836 264.968C312.163 264.258 314.671 261.796 314.728 260.164C314.881 255.811 314.373 254.002 311.912 250.144C308.001 244.011 302.969 238.287 291.48 226.903C278.733 214.271 277.843 213.096 277.825 208.87C277.81 205.323 279.466 202.597 290.656 187.758C306.442 166.825 312.762 156.714 314.52 149.586C315.554 145.392 314.964 143.372 312.304 142.001C309.802 140.711 305.983 140.588 282.372 141.043L263.774 141.402L262.365 143.035C261.589 143.933 260.072 146.869 258.993 149.561C253.372 163.577 242.372 182.853 234.917 191.751C232.005 195.227 227.48 198.784 225.97 198.784C223.863 198.784 222.125 197.422 220.808 194.738L219.592 192.259L219.715 168.892C219.825 148.092 219.756 145.275 219.09 143.239C217.552 138.541 215.648 137.146 209.173 135.975C205.355 135.285 186.992 134.732 181.376 135.138Z" fill="white"></path> <circle cx="200" cy="200" r="187.5" stroke="white" stroke-width="25"></circle> </svg> 