<svg width="24" height="24" viewBox="0 0 24 24" fill="none" xmlns="http://www.w3.org/2000/svg">
<path fill-rule="evenodd" clip-rule="evenodd" d="M10.8698 3C11.7592 2.57489 12.7932 2.57489 13.6826 3C14.069 3.18468 14.4231 3.48668 14.9133 3.90484C14.9388 3.92655 14.9646 3.94856 14.9908 3.97089C15.2289 4.17379 15.3038 4.23617 15.3797 4.28702C15.5727 4.41636 15.7894 4.50612 16.0173 4.55112C16.1069 4.56881 16.204 4.57771 16.5158 4.60259C16.5501 4.60533 16.584 4.60802 16.6173 4.61066C17.2597 4.66163 17.7236 4.69844 18.1274 4.84107C19.0569 5.16939 19.788 5.90052 20.1163 6.83002C20.2589 7.23383 20.2958 7.69773 20.3467 8.34007C20.3494 8.37341 20.3521 8.40723 20.3548 8.44155C20.3797 8.75337 20.3886 8.8505 20.4063 8.9401C20.4513 9.16801 20.541 9.38472 20.6704 9.57769C20.7212 9.65355 20.7836 9.72853 20.9865 9.96662C21.0088 9.99283 21.0309 10.0186 21.0526 10.0441C21.4707 10.5343 21.7727 10.8884 21.9574 11.2748C22.3825 12.1642 22.3825 13.1982 21.9574 14.0876C21.7727 14.474 21.4707 14.828 21.0526 15.3182C21.0309 15.3437 21.0088 15.3695 20.9865 15.3957C20.7836 15.6338 20.7212 15.7088 20.6704 15.7847C20.541 15.9776 20.4513 16.1943 20.4063 16.4222C20.3886 16.5118 20.3797 16.609 20.3548 16.9208C20.3521 16.9551 20.3494 16.9889 20.3467 17.0223C20.2958 17.6646 20.2589 18.1285 20.1163 18.5323C19.788 19.4618 19.0569 20.1929 18.1274 20.5213C17.7236 20.6639 17.2597 20.7007 16.6173 20.7517C16.584 20.7543 16.5501 20.757 16.5158 20.7597C16.204 20.7846 16.1069 20.7935 16.0173 20.8112C15.7894 20.8562 15.5727 20.946 15.3797 21.0753C15.3038 21.1262 15.2289 21.1885 14.9908 21.3914C14.9646 21.4138 14.9387 21.4358 14.9133 21.4575C14.4231 21.8757 14.069 22.1777 13.6826 22.3623C12.7932 22.7874 11.7592 22.7874 10.8698 22.3623C10.4834 22.1777 10.1294 21.8757 9.63912 21.4575C9.61367 21.4358 9.58786 21.4138 9.56166 21.3914C9.32358 21.1885 9.2486 21.1262 9.17273 21.0753C8.97977 20.946 8.76305 20.8562 8.53515 20.8112C8.44555 20.7935 8.34841 20.7846 8.0366 20.7597C8.00228 20.757 7.96846 20.7543 7.93512 20.7517C7.29278 20.7007 6.82888 20.6639 6.42507 20.5213C5.49556 20.1929 4.76443 19.4618 4.43612 18.5323C4.29349 18.1285 4.25668 17.6646 4.20571 17.0223C4.20306 16.9889 4.20038 16.9551 4.19764 16.9208C4.17276 16.609 4.16385 16.5118 4.14616 16.4222C4.10117 16.1943 4.0114 15.9776 3.88207 15.7847C3.83122 15.7088 3.76883 15.6338 3.56594 15.3957C3.54361 15.3695 3.52159 15.3437 3.49989 15.3183C3.08173 14.828 2.77973 14.474 2.59505 14.0876C2.16994 13.1982 2.16994 12.1642 2.59505 11.2748C2.77973 10.8884 3.08172 10.5343 3.49988 10.0441C3.52159 10.0186 3.54361 9.99282 3.56594 9.96662C3.76883 9.72853 3.83122 9.65355 3.88207 9.57769C4.0114 9.38472 4.10117 9.16801 4.14616 8.9401C4.16385 8.8505 4.17276 8.75337 4.19764 8.44155C4.20038 8.40723 4.20306 8.37341 4.20571 8.34007C4.25668 7.69773 4.29349 7.23383 4.43612 6.83002C4.76443 5.90052 5.49556 5.16939 6.42507 4.84107C6.82888 4.69844 7.29278 4.66163 7.93512 4.61066C7.96846 4.60802 8.00228 4.60533 8.0366 4.60259C8.34842 4.57771 8.44555 4.56881 8.53515 4.55112C8.76305 4.50612 8.97977 4.41636 9.17273 4.28702C9.2486 4.23617 9.32358 4.17379 9.56166 3.97089C9.58787 3.94856 9.61368 3.92654 9.63913 3.90484C10.1294 3.48668 10.4834 3.18468 10.8698 3ZM13.0335 4.35806C12.5546 4.12916 11.9978 4.12916 11.5189 4.35806C11.3338 4.44656 11.1386 4.60468 10.538 5.11654C10.5281 5.12494 10.5184 5.13324 10.5088 5.14143C10.3117 5.30947 10.1678 5.43214 10.0108 5.53737C9.65241 5.77756 9.24994 5.94427 8.82669 6.02783C8.64127 6.06444 8.45279 6.07944 8.19458 6.09999C8.182 6.101 8.16926 6.10201 8.15634 6.10304C7.36969 6.16582 7.11988 6.19201 6.92638 6.26036C6.42587 6.43714 6.03219 6.83083 5.8554 7.33133C5.78706 7.52483 5.76086 7.77465 5.69809 8.56129C5.69706 8.57421 5.69604 8.58696 5.69504 8.59954C5.67449 8.85774 5.65948 9.04622 5.62287 9.23165C5.53931 9.65489 5.37261 10.0574 5.13241 10.4157C5.02718 10.5727 4.90452 10.7166 4.73647 10.9137C4.72828 10.9233 4.71999 10.9331 4.71158 10.9429C4.19973 11.5436 4.04161 11.7387 3.95311 11.9239C3.72421 12.4028 3.72421 12.9595 3.95311 13.4385C4.04161 13.6236 4.19973 13.8188 4.71158 14.4194C4.71999 14.4293 4.72829 14.439 4.73648 14.4486C4.90452 14.6457 5.02718 14.7896 5.13241 14.9466C5.37261 15.305 5.53931 15.7074 5.62287 16.1307C5.65948 16.3161 5.67449 16.5046 5.69504 16.7628C5.69604 16.7754 5.69706 16.7881 5.69809 16.801C5.76086 17.5877 5.78706 17.8375 5.8554 18.031C6.03219 18.5315 6.42587 18.9252 6.92638 19.102C7.11988 19.1703 7.36969 19.1965 8.15634 19.2593L8.19458 19.2623C8.45279 19.2829 8.64127 19.2979 8.82669 19.3345C9.24994 19.4181 9.65241 19.5848 10.0108 19.825C10.1678 19.9302 10.3117 20.0529 10.5088 20.2209L10.538 20.2458C11.1386 20.7577 11.3338 20.9158 11.5189 21.0043C11.9978 21.2332 12.5546 21.2332 13.0335 21.0043C13.2187 20.9158 13.4138 20.7577 14.0145 20.2458L14.0437 20.2209C14.2408 20.0529 14.3847 19.9302 14.5417 19.825C14.9 19.5848 15.3025 19.4181 15.7257 19.3345C15.9112 19.2979 16.0996 19.2829 16.3579 19.2623L16.3961 19.2593C17.1827 19.1965 17.4326 19.1703 17.6261 19.102C18.1266 18.9252 18.5202 18.5315 18.697 18.031C18.7654 17.8375 18.7916 17.5877 18.8543 16.801L18.8574 16.7628C18.8779 16.5046 18.8929 16.3161 18.9296 16.1307C19.0131 15.7074 19.1798 15.305 19.42 14.9466C19.5252 14.7896 19.6479 14.6457 19.8159 14.4486L19.8408 14.4194C20.3527 13.8188 20.5108 13.6236 20.5993 13.4385C20.8282 12.9595 20.8282 12.4028 20.5993 11.9239C20.5108 11.7387 20.3527 11.5436 19.8408 10.9429L19.8159 10.9137C19.6479 10.7166 19.5252 10.5727 19.42 10.4157C19.1798 10.0574 19.0131 9.65489 18.9296 9.23165C18.8929 9.04622 18.8779 8.85774 18.8574 8.59953L18.8543 8.56129C18.7916 7.77465 18.7654 7.52483 18.697 7.33133C18.5202 6.83083 18.1266 6.43714 17.6261 6.26036C17.4326 6.19201 17.1827 6.16582 16.3961 6.10304C16.3832 6.10201 16.3704 6.101 16.3578 6.09999C16.0996 6.07944 15.9112 6.06444 15.7257 6.02783C15.3025 5.94427 14.9 5.77756 14.5417 5.53737C14.3847 5.43214 14.2408 5.30947 14.0437 5.14142C14.0341 5.13324 14.0243 5.12494 14.0145 5.11654C13.4138 4.60468 13.2187 4.44656 13.0335 4.35806Z" fill="#1C274C"/>
<path d="M9.93934 9.96662C10.2322 9.67372 10.7071 9.67372 11 9.96662L12.4697 11.4363L13.9393 9.96663C14.2322 9.67374 14.7071 9.67374 15 9.96663C15.2929 10.2595 15.2929 10.7344 15 11.0273L13.5303 12.497L15 13.9666C15.2929 14.2595 15.2929 14.7344 15 15.0273C14.7071 15.3202 14.2322 15.3202 13.9393 15.0273L12.4697 13.5576L11 15.0273C10.7071 15.3202 10.2323 15.3202 9.93936 15.0273C9.64646 14.7344 9.64646 14.2595 9.93936 13.9666L11.409 12.497L9.93934 11.0273C9.64645 10.7344 9.64645 10.2595 9.93934 9.96662Z" fill="#1C274C"/>
</svg>
