<svg viewBox="0 0 24 24" fill="none" xmlns="http://www.w3.org/2000/svg">
<circle cx="12" cy="12" r="10" stroke="#1C274C" stroke-width="1.5"/>
<path d="M13.18 8.03933L13.6435 7.57589C14.4113 6.80804 15.6563 6.80804 16.4241 7.57589C17.192 8.34374 17.192 9.58868 16.4241 10.3565L15.9607 10.82M13.18 8.03933C13.18 8.03933 13.238 9.02414 14.1069 9.89309C14.9759 10.762 15.9607 10.82 15.9607 10.82M13.18 8.03933L8.91941 12.2999C8.63083 12.5885 8.48654 12.7328 8.36245 12.8919C8.21607 13.0796 8.09057 13.2827 7.98817 13.4975C7.90137 13.6797 7.83684 13.8732 7.70778 14.2604L7.1609 15.901M15.9607 10.82L11.7001 15.0806C11.4115 15.3692 11.2672 15.5135 11.1081 15.6376C10.9204 15.7839 10.7173 15.9094 10.5025 16.0118C10.3203 16.0986 10.1268 16.1632 9.73959 16.2922L8.09896 16.8391M8.09896 16.8391L7.69792 16.9728C7.50739 17.0363 7.29733 16.9867 7.15532 16.8447C7.0133 16.7027 6.96371 16.4926 7.02722 16.3021L7.1609 15.901M8.09896 16.8391L7.1609 15.901" stroke="#1C274C" stroke-width="1.5"/>
</svg>
